<?xml version="1.0" standalone="no"?>
<!DOCTYPE svg PUBLIC "-//W3C//DTD SVG 20010904//EN"
 "http://www.w3.org/TR/2001/REC-SVG-20010904/DTD/svg10.dtd">
<svg version="1.0" xmlns="http://www.w3.org/2000/svg"
 width="512.000000pt" height="512.000000pt" viewBox="0 0 512.000000 512.000000"
 preserveAspectRatio="xMidYMid meet">
<metadata>
Created by potrace 1.14, written by Peter Selinger 2001-2017
</metadata>
<g transform="translate(0.000000,512.000000) scale(0.100000,-0.100000)"
fill="#000000" stroke="none">
<path d="M0 2560 l0 -2560 2560 0 2560 0 0 2560 0 2560 -2560 0 -2560 0 0
-2560z m1931 1714 c72 -40 119 -118 119 -199 0 -90 -49 -166 -234 -367 -75
-81 -136 -149 -136 -152 0 -3 86 -6 190 -6 l190 0 0 -45 0 -45 -260 0 -260 0
0 39 c0 36 12 52 184 241 101 111 194 223 206 248 60 120 -7 232 -138 232 -75
0 -152 -66 -152 -131 0 -28 -2 -29 -51 -29 l-52 0 7 42 c27 170 227 259 387
172z m1541 13 c51 -21 94 -63 118 -113 45 -92 8 -219 -77 -262 l-36 -19 28 -7
c104 -26 169 -186 119 -292 -26 -55 -95 -111 -160 -130 -71 -20 -194 -15 -245
11 -107 54 -143 112 -137 221 3 61 8 79 33 115 17 23 49 52 72 65 l42 22 -37
23 c-53 35 -82 91 -82 161 0 70 12 103 53 146 37 39 71 58 124 72 47 11 142 5
185 -13z m-2570 -199 l3 -213 193 213 193 212 61 0 c33 0 58 -4 56 -9 -1 -5
-79 -91 -171 -190 l-168 -181 112 -148 c62 -81 141 -184 177 -229 l64 -83 -64
0 -63 1 -144 194 -144 195 -53 -58 -53 -57 -1 -137 0 -138 -50 0 -50 0 0 420
0 420 50 0 50 0 2 -212z m1948 -208 l0 -420 -50 0 -50 0 -2 365 -3 365 -97
-65 c-54 -36 -100 -65 -103 -65 -3 0 -5 22 -5 49 l0 48 108 72 c95 63 112 71
155 71 l47 0 0 -420z m1060 263 l1 -158 27 33 c48 58 79 72 160 72 84 0 147
-24 188 -72 113 -135 109 -381 -8 -495 -54 -53 -102 -73 -173 -73 -73 0 -113
18 -158 70 l-37 44 0 -52 0 -52 -45 0 -45 0 0 420 0 420 45 0 45 0 0 -157z
m90 -1208 c74 -9 142 -18 150 -21 16 -6 -42 -41 -169 -106 -36 -18 -68 -35
-71 -38 -5 -5 -38 -23 -150 -82 -36 -19 -101 -54 -145 -79 -134 -74 -178 -98
-224 -119 -24 -11 -55 -29 -70 -39 -14 -10 -64 -38 -111 -62 -47 -24 -87 -46
-90 -50 -5 -5 -99 -55 -165 -87 -16 -8 -38 -22 -47 -30 -10 -8 -18 -12 -18 -8
0 4 -12 -1 -27 -12 -16 -10 -73 -43 -128 -72 -55 -29 -116 -62 -135 -73 -19
-11 -82 -45 -140 -74 -58 -30 -109 -58 -115 -63 -6 -5 -51 -30 -100 -56 -50
-26 -141 -76 -204 -111 -62 -34 -116 -63 -118 -63 -3 0 -31 -15 -62 -34 -31
-18 -128 -72 -216 -118 -88 -47 -178 -96 -200 -108 -22 -13 -69 -38 -105 -56
-36 -19 -87 -48 -115 -64 -27 -17 -68 -39 -90 -50 -22 -11 -47 -24 -55 -29
-37 -23 -246 -136 -250 -136 -3 0 -12 -5 -20 -10 -8 -5 -42 -24 -75 -41 -64
-34 -175 -94 -240 -131 -22 -12 -50 -27 -62 -32 -12 -6 -41 -22 -63 -36 -23
-15 -44 -24 -47 -21 -8 8 128 279 202 401 152 251 313 454 540 681 197 197
327 304 550 453 253 168 458 272 750 381 302 112 694 194 1025 214 123 7 475
-4 610 -19z"/>
<path d="M3281 4202 c-52 -26 -75 -63 -75 -122 0 -57 22 -94 73 -124 40 -23
116 -24 160 -2 64 34 91 128 55 197 -31 60 -143 87 -213 51z"/>
<path d="M3286 3836 c-113 -42 -149 -172 -68 -249 76 -73 251 -59 302 25 43
70 17 168 -57 211 -43 25 -128 31 -177 13z"/>
<path d="M4010 3988 c-82 -42 -120 -172 -90 -305 17 -77 76 -138 142 -148 89
-13 172 49 199 149 18 66 8 174 -21 231 -45 87 -141 118 -230 73z"/>
</g>
</svg>
