<svg id="slider-bar" width="1182" height="64" viewBox="0 0 1182 64" fill="none" xmlns="http://www.w3.org/2000/svg">
<path d="M0 4C0 1.79086 1.79086 0 4 0H1182V8H4.00002C1.79088 8 0 6.20914 0 4V4Z" fill="white"/>
<circle cx="4" cy="4" r="2" fill="black"/>
<circle cx="50" cy="4" r="2" fill="black"/>
<circle cx="117" cy="4" r="2" fill="black"/>
<circle cx="232" cy="4" r="2" fill="black"/>
<circle cx="350" cy="4" r="2" fill="black"/>
<circle cx="551" cy="4" r="2" fill="black"/>
<circle cx="748" cy="3.8999" r="2" fill="black"/>
<circle cx="948" cy="3.8999" r="2" fill="black"/>
<circle cx="1105" cy="3.8999" r="2" fill="black"/>
<path d="M8 44.3844H2.16L2.16 41.0244H2.816L2.816 43.6724H4.624V41.3044H5.272V43.6724H7.344V41.0244H8V44.3844ZM8 39.1875L2.16 37.6675V36.6995L8 35.1875V35.9155L6.448 36.2995V38.0675L8 38.4515V39.1875ZM5.84 37.9235V36.4515L4.04 36.8995C3.69867 36.9848 3.41333 37.0515 3.184 37.0995C2.95467 37.1475 2.80533 37.1768 2.736 37.1875C2.80533 37.1982 2.95467 37.2275 3.184 37.2755C3.41333 37.3235 3.696 37.3902 4.032 37.4755L5.84 37.9235ZM8 33.2546H2.16V31.4466C2.16 31.1 2.232 30.796 2.376 30.5346C2.51467 30.2733 2.70933 30.0706 2.96 29.9266C3.21067 29.7826 3.504 29.7106 3.84 29.7106C4.23467 29.7106 4.57333 29.8146 4.856 30.0226C5.13867 30.2253 5.33333 30.5026 5.44 30.8546L8 29.6306V30.4786L5.52 31.5986V32.5346H8V33.2546ZM4.872 32.5346V31.4466C4.872 31.148 4.77867 30.908 4.592 30.7266C4.4 30.5453 4.14933 30.4546 3.84 30.4546C3.52533 30.4546 3.27467 30.5453 3.088 30.7266C2.90133 30.908 2.808 31.148 2.808 31.4466V32.5346H4.872ZM8 26.3538H2.808L2.808 27.9538H2.152L2.152 24.0338H2.808V25.6338H8V26.3538ZM8 22.0529H2.16V21.3329H4.656V19.4609H2.16V18.7409H8V19.4609H5.312V21.3329H8V22.0529Z" fill="white"/>
<path d="M54 38.9795H48.16V38.0355L50.048 37.4275C50.2187 37.3688 50.3893 37.3155 50.56 37.2675C50.7253 37.2195 50.8533 37.1848 50.944 37.1635C50.8533 37.1368 50.7253 37.1022 50.56 37.0595C50.3893 37.0168 50.216 36.9688 50.04 36.9155L48.16 36.3395V35.3955H54V36.0995H51.88C51.6453 36.0995 51.3787 36.0915 51.08 36.0755C50.7813 36.0595 50.4773 36.0382 50.168 36.0115C49.8533 35.9848 49.5547 35.9582 49.272 35.9315C48.984 35.8995 48.7333 35.8728 48.52 35.8515L51.44 36.7955V37.5555L48.52 38.5075C48.728 38.4808 48.9707 38.4542 49.248 38.4275C49.52 38.4008 49.8107 38.3768 50.12 38.3555C50.424 38.3342 50.728 38.3155 51.032 38.2995C51.336 38.2835 51.6187 38.2755 51.88 38.2755H54V38.9795ZM54.08 31.5906C54.08 31.9426 54.0133 32.2466 53.88 32.5026C53.7467 32.7533 53.5547 32.948 53.304 33.0866C53.048 33.22 52.7467 33.2866 52.4 33.2866H49.76C49.408 33.2866 49.1067 33.22 48.856 33.0866C48.6053 32.948 48.4133 32.7533 48.28 32.5026C48.1467 32.2466 48.08 31.9426 48.08 31.5906C48.08 31.2386 48.1467 30.9373 48.28 30.6866C48.4133 30.4306 48.6053 30.236 48.856 30.1026C49.1067 29.964 49.4053 29.8946 49.752 29.8946H52.4C52.7467 29.8946 53.048 29.964 53.304 30.1026C53.5547 30.236 53.7467 30.4306 53.88 30.6866C54.0133 30.9373 54.08 31.2386 54.08 31.5906ZM53.432 31.5906C53.432 31.276 53.344 31.036 53.168 30.8706C52.9867 30.7 52.7307 30.6146 52.4 30.6146H49.76C49.4293 30.6146 49.176 30.7 49 30.8706C48.8187 31.036 48.728 31.276 48.728 31.5906C48.728 31.9 48.8187 32.14 49 32.3106C49.176 32.4813 49.4293 32.5666 49.76 32.5666H52.4C52.7307 32.5666 52.9867 32.4813 53.168 32.3106C53.344 32.14 53.432 31.9 53.432 31.5906ZM54.08 25.9937C54.08 26.3457 54.0133 26.6497 53.88 26.9057C53.7467 27.1564 53.5547 27.3511 53.304 27.4897C53.048 27.6231 52.7467 27.6897 52.4 27.6897H49.76C49.408 27.6897 49.1067 27.6231 48.856 27.4897C48.6053 27.3511 48.4133 27.1564 48.28 26.9057C48.1467 26.6497 48.08 26.3457 48.08 25.9937C48.08 25.6417 48.1467 25.3404 48.28 25.0897C48.4133 24.8337 48.6053 24.6391 48.856 24.5057C49.1067 24.3671 49.4053 24.2977 49.752 24.2977H52.4C52.7467 24.2977 53.048 24.3671 53.304 24.5057C53.5547 24.6391 53.7467 24.8337 53.88 25.0897C54.0133 25.3404 54.08 25.6417 54.08 25.9937ZM53.432 25.9937C53.432 25.6791 53.344 25.4391 53.168 25.2737C52.9867 25.1031 52.7307 25.0177 52.4 25.0177H49.76C49.4293 25.0177 49.176 25.1031 49 25.2737C48.8187 25.4391 48.728 25.6791 48.728 25.9937C48.728 26.3031 48.8187 26.5431 49 26.7137C49.176 26.8844 49.4293 26.9697 49.76 26.9697H52.4C52.7307 26.9697 52.9867 26.8844 53.168 26.7137C53.344 26.5431 53.432 26.3031 53.432 25.9937ZM54 22.0769H48.16V21.1169L53.16 19.3329C53.0267 19.3435 52.864 19.3569 52.672 19.3729C52.4747 19.3835 52.2693 19.3942 52.056 19.4049C51.8373 19.4102 51.632 19.4129 51.44 19.4129H48.16V18.7169H54V19.6769L49 21.4529C49.128 21.4422 49.2907 21.4315 49.488 21.4209C49.68 21.4102 49.8853 21.4022 50.104 21.3969C50.3173 21.3862 50.5227 21.3809 50.72 21.3809H54V22.0769Z" fill="white"/>
<path d="M121 40.9795H115.16V40.0355L117.048 39.4275C117.219 39.3688 117.389 39.3155 117.56 39.2675C117.725 39.2195 117.853 39.1848 117.944 39.1635C117.853 39.1368 117.725 39.1022 117.56 39.0595C117.389 39.0168 117.216 38.9688 117.04 38.9155L115.16 38.3395V37.3955H121V38.0995H118.88C118.645 38.0995 118.379 38.0915 118.08 38.0755C117.781 38.0595 117.477 38.0382 117.168 38.0115C116.853 37.9848 116.555 37.9582 116.272 37.9315C115.984 37.8995 115.733 37.8728 115.52 37.8515L118.44 38.7955V39.5555L115.52 40.5075C115.728 40.4808 115.971 40.4542 116.248 40.4275C116.52 40.4008 116.811 40.3768 117.12 40.3555C117.424 40.3342 117.728 40.3155 118.032 40.2995C118.336 40.2835 118.619 40.2755 118.88 40.2755H121V40.9795ZM121 35.5906L115.16 34.0706V33.1026L121 31.5906V32.3186L119.448 32.7026V34.4706L121 34.8546V35.5906ZM118.84 34.3266V32.8546L117.04 33.3026C116.699 33.388 116.413 33.4546 116.184 33.5026C115.955 33.5506 115.805 33.58 115.736 33.5906C115.805 33.6013 115.955 33.6306 116.184 33.6786C116.413 33.7266 116.696 33.7933 117.032 33.8786L118.84 34.3266ZM121 29.6577H115.16V27.8497C115.16 27.5031 115.232 27.1991 115.376 26.9377C115.515 26.6764 115.709 26.4737 115.96 26.3297C116.211 26.1857 116.504 26.1137 116.84 26.1137C117.235 26.1137 117.573 26.2177 117.856 26.4257C118.139 26.6284 118.333 26.9057 118.44 27.2577L121 26.0337V26.8817L118.52 28.0017V28.9377H121V29.6577ZM117.872 28.9377V27.8497C117.872 27.5511 117.779 27.3111 117.592 27.1297C117.4 26.9484 117.149 26.8577 116.84 26.8577C116.525 26.8577 116.275 26.9484 116.088 27.1297C115.901 27.3111 115.808 27.5511 115.808 27.8497V28.9377H117.872ZM121.08 22.3649C121.08 22.7489 121.016 23.0795 120.888 23.3569C120.76 23.6289 120.576 23.8395 120.336 23.9889C120.096 24.1382 119.811 24.2155 119.48 24.2209V23.5009C119.773 23.5009 120.005 23.4022 120.176 23.2049C120.347 23.0022 120.432 22.7222 120.432 22.3649C120.432 22.0289 120.349 21.7675 120.184 21.5809C120.019 21.3889 119.789 21.2929 119.496 21.2929C119.261 21.2929 119.056 21.3569 118.88 21.4849C118.704 21.6075 118.581 21.7862 118.512 22.0209L118.264 22.8129C118.141 23.2129 117.936 23.5222 117.648 23.7409C117.36 23.9542 117.021 24.0609 116.632 24.0609C116.317 24.0609 116.045 23.9915 115.816 23.8529C115.581 23.7089 115.4 23.5089 115.272 23.2529C115.139 22.9969 115.072 22.6955 115.072 22.3489C115.072 21.8369 115.216 21.4262 115.504 21.1169C115.787 20.8075 116.165 20.6502 116.64 20.6449V21.3649C116.352 21.3649 116.128 21.4529 115.968 21.6289C115.803 21.7995 115.72 22.0422 115.72 22.3569C115.72 22.6662 115.795 22.9089 115.944 23.0849C116.093 23.2555 116.301 23.3409 116.568 23.3409C116.808 23.3409 117.016 23.2769 117.192 23.1489C117.368 23.0209 117.493 22.8369 117.568 22.5969L117.824 21.7969C117.947 21.4075 118.155 21.1062 118.448 20.8929C118.741 20.6795 119.085 20.5729 119.48 20.5729C119.8 20.5729 120.08 20.6475 120.32 20.7969C120.56 20.9462 120.747 21.1569 120.88 21.4289C121.013 21.6955 121.08 22.0075 121.08 22.3649Z" fill="white"/>
<path d="M232 63.575L226.16 62.055V61.087L232 59.575V60.303L230.448 60.687V62.455L232 62.839V63.575ZM229.84 62.311V60.839L228.04 61.287C227.699 61.3723 227.413 61.439 227.184 61.487C226.955 61.535 226.805 61.5643 226.736 61.575C226.805 61.5857 226.955 61.615 227.184 61.663C227.413 61.711 227.696 61.7777 228.032 61.863L229.84 62.311ZM232.08 55.9461C232.08 56.3301 232.016 56.6608 231.888 56.9381C231.76 57.2101 231.576 57.4208 231.336 57.5701C231.096 57.7195 230.811 57.7968 230.48 57.8021V57.0821C230.773 57.0821 231.005 56.9835 231.176 56.7861C231.347 56.5835 231.432 56.3035 231.432 55.9461C231.432 55.6101 231.349 55.3488 231.184 55.1621C231.019 54.9701 230.789 54.8741 230.496 54.8741C230.261 54.8741 230.056 54.9381 229.88 55.0661C229.704 55.1888 229.581 55.3675 229.512 55.6021L229.264 56.3941C229.141 56.7941 228.936 57.1035 228.648 57.3221C228.36 57.5355 228.021 57.6421 227.632 57.6421C227.317 57.6421 227.045 57.5728 226.816 57.4341C226.581 57.2901 226.4 57.0901 226.272 56.8341C226.139 56.5781 226.072 56.2768 226.072 55.9301C226.072 55.4181 226.216 55.0075 226.504 54.6981C226.787 54.3888 227.165 54.2315 227.64 54.2261V54.9461C227.352 54.9461 227.128 55.0341 226.968 55.2101C226.803 55.3808 226.72 55.6235 226.72 55.9381C226.72 56.2475 226.795 56.4901 226.944 56.6661C227.093 56.8368 227.301 56.9221 227.568 56.9221C227.808 56.9221 228.016 56.8581 228.192 56.7301C228.368 56.6021 228.493 56.4181 228.568 56.1781L228.824 55.3781C228.947 54.9888 229.155 54.6875 229.448 54.4741C229.741 54.2608 230.085 54.1541 230.48 54.1541C230.8 54.1541 231.08 54.2288 231.32 54.3781C231.56 54.5275 231.747 54.7381 231.88 55.0101C232.013 55.2768 232.08 55.5888 232.08 55.9461ZM232 50.7412H226.808V52.3412H226.152V48.4212H226.808V50.0212H232V50.7412ZM232 46.3844H226.16V43.0244H226.816V45.6724H228.624V43.3044H229.272V45.6724H231.344V43.0244H232V46.3844ZM232 40.8515H226.16V39.0435C226.16 38.6968 226.232 38.3928 226.376 38.1315C226.515 37.8702 226.709 37.6675 226.96 37.5235C227.211 37.3795 227.504 37.3075 227.84 37.3075C228.235 37.3075 228.573 37.4115 228.856 37.6195C229.139 37.8222 229.333 38.0995 229.44 38.4515L232 37.2275V38.0755L229.52 39.1955V40.1315H232V40.8515ZM228.872 40.1315V39.0435C228.872 38.7448 228.779 38.5048 228.592 38.3235C228.4 38.1422 228.149 38.0515 227.84 38.0515C227.525 38.0515 227.275 38.1422 227.088 38.3235C226.901 38.5048 226.808 38.7448 226.808 39.0435V40.1315H228.872ZM232.08 33.5906C232.08 33.9426 232.013 34.2466 231.88 34.5026C231.747 34.7533 231.555 34.948 231.304 35.0866C231.048 35.22 230.747 35.2866 230.4 35.2866H227.76C227.408 35.2866 227.107 35.22 226.856 35.0866C226.605 34.948 226.413 34.7533 226.28 34.5026C226.147 34.2466 226.08 33.9426 226.08 33.5906C226.08 33.2386 226.147 32.9373 226.28 32.6866C226.413 32.4306 226.605 32.236 226.856 32.1026C227.107 31.964 227.405 31.8946 227.752 31.8946H230.4C230.747 31.8946 231.048 31.964 231.304 32.1026C231.555 32.236 231.747 32.4306 231.88 32.6866C232.013 32.9373 232.08 33.2386 232.08 33.5906ZM231.432 33.5906C231.432 33.276 231.344 33.036 231.168 32.8706C230.987 32.7 230.731 32.6146 230.4 32.6146H227.76C227.429 32.6146 227.176 32.7 227 32.8706C226.819 33.036 226.728 33.276 226.728 33.5906C226.728 33.9 226.819 34.14 227 34.3106C227.176 34.4813 227.429 34.5666 227.76 34.5666H230.4C230.731 34.5666 230.987 34.4813 231.168 34.3106C231.344 34.14 231.432 33.9 231.432 33.5906ZM232 29.5537H231.344V28.3617H226.816V29.5537H226.16V26.4337H226.816V27.6257H231.344V26.4337H232V29.5537ZM232 24.0609H226.16V22.5489C226.16 22.1702 226.232 21.8449 226.376 21.5729C226.52 21.2955 226.723 21.0822 226.984 20.9329C227.245 20.7782 227.555 20.7009 227.912 20.7009H230.24C230.597 20.7009 230.909 20.7782 231.176 20.9329C231.437 21.0822 231.64 21.2955 231.784 21.5729C231.928 21.8449 232 22.1702 232 22.5489V24.0609ZM231.36 23.3409V22.5489C231.36 22.1969 231.261 21.9222 231.064 21.7249C230.867 21.5222 230.592 21.4209 230.24 21.4209H227.912C227.565 21.4209 227.293 21.5222 227.096 21.7249C226.899 21.9222 226.8 22.1969 226.8 22.5489V23.3409H231.36ZM243 40.8435H237.16V39.1875C237.16 38.6542 237.293 38.2382 237.56 37.9395C237.827 37.6355 238.197 37.4835 238.672 37.4835C238.939 37.4835 239.171 37.5395 239.368 37.6515C239.565 37.7635 239.717 37.9235 239.824 38.1315C239.931 38.3342 239.981 38.5795 239.976 38.8675H239.856C239.851 38.5582 239.909 38.2915 240.032 38.0675C240.155 37.8382 240.331 37.6622 240.56 37.5395C240.789 37.4115 241.061 37.3475 241.376 37.3475C241.707 37.3475 241.995 37.4168 242.24 37.5555C242.485 37.6942 242.675 37.8915 242.808 38.1475C242.936 38.4035 243 38.7102 243 39.0675V40.8435ZM242.352 40.1395V39.1475C242.352 38.8115 242.264 38.5475 242.088 38.3555C241.907 38.1582 241.661 38.0595 241.352 38.0595C241.032 38.0595 240.773 38.1582 240.576 38.3555C240.373 38.5475 240.272 38.8115 240.272 39.1475V40.1395H242.352ZM239.648 40.1395V39.1955C239.648 38.8862 239.565 38.6435 239.4 38.4675C239.235 38.2862 239.011 38.1955 238.728 38.1955C238.445 38.1955 238.221 38.2835 238.056 38.4595C237.891 38.6355 237.808 38.8782 237.808 39.1875V40.1395H239.648ZM243 35.1906H237.16V31.8306H237.816V34.4786H239.624V32.1106H240.272V34.4786H242.344V31.8306H243V35.1906ZM243 29.4737H237.16V28.7537H242.344V26.1137H243V29.4737ZM243 22.7569H237.808V24.3569H237.152V20.4369H237.808V22.0369H243V22.7569Z" fill="white"/>
<path d="M354.08 44.7524C354.08 45.1044 354.013 45.411 353.88 45.6724C353.747 45.9284 353.555 46.1284 353.304 46.2724C353.048 46.411 352.747 46.4804 352.4 46.4804H349.76C349.408 46.4804 349.107 46.411 348.856 46.2724C348.605 46.1284 348.413 45.9284 348.28 45.6724C348.147 45.411 348.08 45.1044 348.08 44.7524C348.08 44.4004 348.149 44.0964 348.288 43.8404C348.421 43.5844 348.613 43.387 348.864 43.2484C349.115 43.1097 349.413 43.0404 349.76 43.0404V43.7604C349.429 43.7604 349.176 43.8484 349 44.0244C348.819 44.195 348.728 44.4377 348.728 44.7524C348.728 45.067 348.816 45.315 348.992 45.4964C349.168 45.6724 349.421 45.7604 349.752 45.7604H352.4C352.731 45.7604 352.987 45.6724 353.168 45.4964C353.344 45.315 353.432 45.067 353.432 44.7524C353.432 44.4377 353.344 44.195 353.168 44.0244C352.987 43.8484 352.731 43.7604 352.4 43.7604V43.0404C352.741 43.0404 353.04 43.1097 353.296 43.2484C353.547 43.387 353.741 43.5844 353.88 43.8404C354.013 44.0964 354.08 44.4004 354.08 44.7524ZM354 40.7875H348.16V37.4275H348.816V40.0755H350.624V37.7075H351.272V40.0755H353.344V37.4275H354V40.7875ZM354 35.2546H348.16V33.4466C348.16 33.1 348.232 32.796 348.376 32.5346C348.515 32.2733 348.709 32.0706 348.96 31.9266C349.211 31.7826 349.504 31.7106 349.84 31.7106C350.235 31.7106 350.573 31.8146 350.856 32.0226C351.139 32.2253 351.333 32.5026 351.44 32.8546L354 31.6306V32.4786L351.52 33.5986V34.5346H354V35.2546ZM350.872 34.5346V33.4466C350.872 33.148 350.779 32.908 350.592 32.7266C350.4 32.5453 350.149 32.4546 349.84 32.4546C349.525 32.4546 349.275 32.5453 349.088 32.7266C348.901 32.908 348.808 33.148 348.808 33.4466V34.5346H350.872ZM354 29.5938H348.16V26.2338H348.816V28.8818H350.624V26.5138H351.272V28.8818H353.344V26.2338H354V29.5938ZM354.08 22.3649C354.08 22.7489 354.016 23.0795 353.888 23.3569C353.76 23.6289 353.576 23.8395 353.336 23.9889C353.096 24.1382 352.811 24.2155 352.48 24.2209V23.5009C352.773 23.5009 353.005 23.4022 353.176 23.2049C353.347 23.0022 353.432 22.7222 353.432 22.3649C353.432 22.0289 353.349 21.7675 353.184 21.5809C353.019 21.3889 352.789 21.2929 352.496 21.2929C352.261 21.2929 352.056 21.3569 351.88 21.4849C351.704 21.6075 351.581 21.7862 351.512 22.0209L351.264 22.8129C351.141 23.2129 350.936 23.5222 350.648 23.7409C350.36 23.9542 350.021 24.0609 349.632 24.0609C349.317 24.0609 349.045 23.9915 348.816 23.8529C348.581 23.7089 348.4 23.5089 348.272 23.2529C348.139 22.9969 348.072 22.6955 348.072 22.3489C348.072 21.8369 348.216 21.4262 348.504 21.1169C348.787 20.8075 349.165 20.6502 349.64 20.6449V21.3649C349.352 21.3649 349.128 21.4529 348.968 21.6289C348.803 21.7995 348.72 22.0422 348.72 22.3569C348.72 22.6662 348.795 22.9089 348.944 23.0849C349.093 23.2555 349.301 23.3409 349.568 23.3409C349.808 23.3409 350.016 23.2769 350.192 23.1489C350.368 23.0209 350.493 22.8369 350.568 22.5969L350.824 21.7969C350.947 21.4075 351.155 21.1062 351.448 20.8929C351.741 20.6795 352.085 20.5729 352.48 20.5729C352.8 20.5729 353.08 20.6475 353.32 20.7969C353.56 20.9462 353.747 21.1569 353.88 21.4289C354.013 21.6955 354.08 22.0075 354.08 22.3649Z" fill="white"/>
<path d="M555.08 56.2181C555.08 56.7781 554.923 57.2181 554.608 57.5381C554.293 57.8581 553.864 58.0181 553.32 58.0181V57.2981C553.677 57.2981 553.955 57.2048 554.152 57.0181C554.344 56.8261 554.44 56.5595 554.44 56.2181C554.44 55.8768 554.344 55.6128 554.152 55.4261C553.955 55.2341 553.677 55.1381 553.32 55.1381H549.816V56.5381H549.16V54.4181H553.32C553.864 54.4181 554.293 54.5808 554.608 54.9061C554.923 55.2261 555.08 55.6635 555.08 56.2181ZM555.08 50.3812C555.08 50.9252 554.931 51.3412 554.632 51.6292C554.328 51.9172 553.917 52.0612 553.4 52.0612H549.16V51.3412H553.4C553.72 51.3412 553.973 51.2639 554.16 51.1092C554.347 50.9492 554.44 50.7066 554.44 50.3812C554.44 50.0612 554.347 49.8212 554.16 49.6612C553.973 49.5012 553.72 49.4212 553.4 49.4212H549.16V48.7012H553.4C553.923 48.7012 554.333 48.8452 554.632 49.1332C554.931 49.4159 555.08 49.8319 555.08 50.3812ZM555 46.4484H549.16V44.5684C549.16 44.2057 549.232 43.891 549.376 43.6244C549.515 43.3577 549.712 43.1524 549.968 43.0084C550.224 42.859 550.528 42.7844 550.88 42.7844C551.227 42.7844 551.531 42.859 551.792 43.0084C552.048 43.1524 552.248 43.3577 552.392 43.6244C552.531 43.891 552.6 44.2057 552.6 44.5684V45.7284H555V46.4484ZM551.952 45.7284V44.5684C551.952 44.2537 551.856 44.003 551.664 43.8164C551.467 43.6244 551.205 43.5284 550.88 43.5284C550.549 43.5284 550.288 43.6244 550.096 43.8164C549.904 44.003 549.808 44.2537 549.808 44.5684V45.7284H551.952ZM555 40.7475H554.344V39.5555H549.816V40.7475H549.16V37.6275H549.816V38.8195H554.344V37.6275H555V40.7475ZM555 33.9506H549.808V35.5506H549.152V31.6306H549.808V33.2306H555V33.9506ZM555 29.5937H549.16V26.2337H549.816V28.8817H551.624V26.5137H552.272V28.8817H554.344V26.2337H555V29.5937ZM555 24.0609H549.16V22.2529C549.16 21.9062 549.232 21.6022 549.376 21.3409C549.515 21.0795 549.709 20.8769 549.96 20.7329C550.211 20.5889 550.504 20.5169 550.84 20.5169C551.235 20.5169 551.573 20.6209 551.856 20.8289C552.139 21.0315 552.333 21.3089 552.44 21.6609L555 20.4369V21.2849L552.52 22.4049V23.3409H555V24.0609ZM551.872 23.3409V22.2529C551.872 21.9542 551.779 21.7142 551.592 21.5329C551.4 21.3515 551.149 21.2609 550.84 21.2609C550.525 21.2609 550.275 21.3515 550.088 21.5329C549.901 21.7142 549.808 21.9542 549.808 22.2529V23.3409H551.872Z" fill="white"/>
<path d="M752.08 50.3492C752.08 50.7332 752.016 51.0639 751.888 51.3412C751.76 51.6132 751.576 51.8239 751.336 51.9732C751.096 52.1226 750.811 52.1999 750.48 52.2052V51.4852C750.773 51.4852 751.005 51.3866 751.176 51.1892C751.347 50.9866 751.432 50.7066 751.432 50.3492C751.432 50.0132 751.349 49.7519 751.184 49.5652C751.019 49.3732 750.789 49.2772 750.496 49.2772C750.261 49.2772 750.056 49.3412 749.88 49.4692C749.704 49.5919 749.581 49.7706 749.512 50.0052L749.264 50.7972C749.141 51.1972 748.936 51.5066 748.648 51.7253C748.36 51.9386 748.021 52.0452 747.632 52.0452C747.317 52.0452 747.045 51.9759 746.816 51.8372C746.581 51.6932 746.4 51.4932 746.272 51.2372C746.139 50.9812 746.072 50.6799 746.072 50.3332C746.072 49.8212 746.216 49.4106 746.504 49.1012C746.787 48.7919 747.165 48.6346 747.64 48.6292V49.3492C747.352 49.3492 747.128 49.4372 746.968 49.6132C746.803 49.7839 746.72 50.0266 746.72 50.3412C746.72 50.6506 746.795 50.8932 746.944 51.0692C747.093 51.2399 747.301 51.3252 747.568 51.3252C747.808 51.3252 748.016 51.2612 748.192 51.1332C748.368 51.0052 748.493 50.8212 748.568 50.5812L748.824 49.7812C748.947 49.3919 749.155 49.0906 749.448 48.8772C749.741 48.6639 750.085 48.5573 750.48 48.5573C750.8 48.5573 751.08 48.6319 751.32 48.7812C751.56 48.9306 751.747 49.1412 751.88 49.4132C752.013 49.6799 752.08 49.9919 752.08 50.3492ZM752 46.7844L746.16 45.2644V44.2964L752 42.7844V43.5124L750.448 43.8964V45.6644L752 46.0484V46.7844ZM749.84 45.5204V44.0484L748.04 44.4964C747.699 44.5817 747.413 44.6484 747.184 44.6964C746.955 44.7444 746.805 44.7737 746.736 44.7844C746.805 44.795 746.955 44.8244 747.184 44.8724C747.413 44.9204 747.696 44.987 748.032 45.0724L749.84 45.5204ZM752 39.5475H746.808V41.1475H746.152V37.2275H746.808V38.8275H752V39.5475ZM752.08 33.5906C752.08 34.1346 751.931 34.5506 751.632 34.8386C751.328 35.1266 750.917 35.2706 750.4 35.2706H746.16V34.5506H750.4C750.72 34.5506 750.973 34.4733 751.16 34.3186C751.347 34.1586 751.44 33.916 751.44 33.5906C751.44 33.2706 751.347 33.0306 751.16 32.8706C750.973 32.7106 750.72 32.6306 750.4 32.6306H746.16V31.9106H750.4C750.923 31.9106 751.333 32.0546 751.632 32.3426C751.931 32.6253 752.08 33.0413 752.08 33.5906ZM752 29.6577H746.16V27.8497C746.16 27.5031 746.232 27.1991 746.376 26.9377C746.515 26.6764 746.709 26.4737 746.96 26.3297C747.211 26.1857 747.504 26.1137 747.84 26.1137C748.235 26.1137 748.573 26.2177 748.856 26.4257C749.139 26.6284 749.333 26.9057 749.44 27.2577L752 26.0337V26.8817L749.52 28.0017V28.9377H752V29.6577ZM748.872 28.9377V27.8497C748.872 27.5511 748.779 27.3111 748.592 27.1297C748.4 26.9484 748.149 26.8577 747.84 26.8577C747.525 26.8577 747.275 26.9484 747.088 27.1297C746.901 27.3111 746.808 27.5511 746.808 27.8497V28.9377H748.872ZM752 24.0769H746.16V23.1169L751.16 21.3329C751.027 21.3435 750.864 21.3569 750.672 21.3729C750.475 21.3835 750.269 21.3942 750.056 21.4049C749.837 21.4102 749.632 21.4129 749.44 21.4129H746.16V20.7169H752V21.6769L747 23.4529C747.128 23.4422 747.291 23.4315 747.488 23.4209C747.68 23.4102 747.885 23.4022 748.104 23.3969C748.317 23.3862 748.523 23.3809 748.72 23.3809H752V24.0769Z" fill="white"/>
<path d="M952.08 50.3812C952.08 50.9252 951.931 51.3412 951.632 51.6292C951.328 51.9172 950.917 52.0612 950.4 52.0612H946.16V51.3412H950.4C950.72 51.3412 950.973 51.2639 951.16 51.1092C951.347 50.9492 951.44 50.7066 951.44 50.3812C951.44 50.0612 951.347 49.8212 951.16 49.6612C950.973 49.5012 950.72 49.4212 950.4 49.4212H946.16V48.7012H950.4C950.923 48.7012 951.333 48.8452 951.632 49.1332C951.931 49.4159 952.08 49.8319 952.08 50.3812ZM952 46.4484H946.16V44.6404C946.16 44.2937 946.232 43.9897 946.376 43.7284C946.515 43.467 946.709 43.2644 946.96 43.1204C947.211 42.9764 947.504 42.9044 947.84 42.9044C948.235 42.9044 948.573 43.0084 948.856 43.2164C949.139 43.419 949.333 43.6964 949.44 44.0484L952 42.8244V43.6724L949.52 44.7924V45.7284H952V46.4484ZM948.872 45.7284V44.6404C948.872 44.3417 948.779 44.1017 948.592 43.9204C948.4 43.739 948.149 43.6484 947.84 43.6484C947.525 43.6484 947.275 43.739 947.088 43.9204C946.901 44.1017 946.808 44.3417 946.808 44.6404V45.7284H948.872ZM952 41.1875L946.16 39.6675V38.6995L952 37.1875V37.9155L950.448 38.2995V40.0675L952 40.4515V41.1875ZM949.84 39.9235V38.4515L948.04 38.8995C947.699 38.9848 947.413 39.0515 947.184 39.0995C946.955 39.1475 946.805 39.1768 946.736 39.1875C946.805 39.1982 946.955 39.2275 947.184 39.2755C947.413 39.3235 947.696 39.3902 948.032 39.4755L949.84 39.9235ZM952 35.2706H946.16V34.3106L951.16 32.5266C951.027 32.5373 950.864 32.5506 950.672 32.5666C950.475 32.5773 950.269 32.588 950.056 32.5986C949.837 32.604 949.632 32.6066 949.44 32.6066H946.16V31.9106H952V32.8706L947 34.6466C947.128 34.636 947.291 34.6253 947.488 34.6146C947.68 34.604 947.885 34.596 948.104 34.5906C948.317 34.58 948.523 34.5746 948.72 34.5746H952V35.2706ZM952.08 27.9937C952.08 28.5377 951.931 28.9537 951.632 29.2417C951.328 29.5297 950.917 29.6737 950.4 29.6737H946.16V28.9537H950.4C950.72 28.9537 950.973 28.8764 951.16 28.7217C951.347 28.5617 951.44 28.3191 951.44 27.9937C951.44 27.6737 951.347 27.4337 951.16 27.2737C950.973 27.1137 950.72 27.0337 950.4 27.0337H946.16V26.3137H950.4C950.923 26.3137 951.333 26.4577 951.632 26.7457C951.931 27.0284 952.08 27.4444 952.08 27.9937ZM952.08 22.3649C952.08 22.7489 952.016 23.0795 951.888 23.3569C951.76 23.6289 951.576 23.8395 951.336 23.9889C951.096 24.1382 950.811 24.2155 950.48 24.2209V23.5009C950.773 23.5009 951.005 23.4022 951.176 23.2049C951.347 23.0022 951.432 22.7222 951.432 22.3649C951.432 22.0289 951.349 21.7675 951.184 21.5809C951.019 21.3889 950.789 21.2929 950.496 21.2929C950.261 21.2929 950.056 21.3569 949.88 21.4849C949.704 21.6075 949.581 21.7862 949.512 22.0209L949.264 22.8129C949.141 23.2129 948.936 23.5222 948.648 23.7409C948.36 23.9542 948.021 24.0609 947.632 24.0609C947.317 24.0609 947.045 23.9915 946.816 23.8529C946.581 23.7089 946.4 23.5089 946.272 23.2529C946.139 22.9969 946.072 22.6955 946.072 22.3489C946.072 21.8369 946.216 21.4262 946.504 21.1169C946.787 20.8075 947.165 20.6502 947.64 20.6449V21.3649C947.352 21.3649 947.128 21.4529 946.968 21.6289C946.803 21.7995 946.72 22.0422 946.72 22.3569C946.72 22.6662 946.795 22.9089 946.944 23.0849C947.093 23.2555 947.301 23.3409 947.568 23.3409C947.808 23.3409 948.016 23.2769 948.192 23.1489C948.368 23.0209 948.493 22.8369 948.568 22.5969L948.824 21.7969C948.947 21.4075 949.155 21.1062 949.448 20.8929C949.741 20.6795 950.085 20.5729 950.48 20.5729C950.8 20.5729 951.08 20.6475 951.32 20.7969C951.56 20.9462 951.747 21.1569 951.88 21.4289C952.013 21.6955 952.08 22.0075 952.08 22.3649Z" fill="white"/>
<path d="M1109 57.6581H1103.16V56.6981L1108.16 54.9141C1108.03 54.9248 1107.86 54.9381 1107.67 54.9541C1107.47 54.9648 1107.27 54.9755 1107.06 54.9861C1106.84 54.9915 1106.63 54.9941 1106.44 54.9941H1103.16V54.2981H1109V55.2581L1104 57.0341C1104.13 57.0235 1104.29 57.0128 1104.49 57.0021C1104.68 56.9915 1104.89 56.9835 1105.1 56.9781C1105.32 56.9675 1105.52 56.9621 1105.72 56.9621H1109V57.6581ZM1109 51.9812H1103.16V48.6212H1103.82V51.2692H1105.62V48.9012H1106.27V51.2692H1108.34V48.6212H1109V51.9812ZM1109 46.4484H1103.16V44.5684C1103.16 44.2057 1103.23 43.891 1103.38 43.6244C1103.51 43.3577 1103.71 43.1524 1103.97 43.0084C1104.22 42.859 1104.53 42.7844 1104.88 42.7844C1105.23 42.7844 1105.53 42.859 1105.79 43.0084C1106.05 43.1524 1106.25 43.3577 1106.39 43.6244C1106.53 43.891 1106.6 44.2057 1106.6 44.5684V45.7284H1109V46.4484ZM1105.95 45.7284V44.5684C1105.95 44.2537 1105.86 44.003 1105.66 43.8164C1105.47 43.6244 1105.21 43.5284 1104.88 43.5284C1104.55 43.5284 1104.29 43.6244 1104.1 43.8164C1103.9 44.003 1103.81 44.2537 1103.81 44.5684V45.7284H1105.95ZM1109 39.5475H1103.81V41.1475H1103.15V37.2275H1103.81V38.8275H1109V39.5475ZM1109.08 33.5906C1109.08 34.1346 1108.93 34.5506 1108.63 34.8386C1108.33 35.1266 1107.92 35.2706 1107.4 35.2706H1103.16V34.5506H1107.4C1107.72 34.5506 1107.97 34.4733 1108.16 34.3186C1108.35 34.1586 1108.44 33.916 1108.44 33.5906C1108.44 33.2706 1108.35 33.0306 1108.16 32.8706C1107.97 32.7106 1107.72 32.6306 1107.4 32.6306H1103.16V31.9106H1107.4C1107.92 31.9106 1108.33 32.0546 1108.63 32.3426C1108.93 32.6253 1109.08 33.0413 1109.08 33.5906ZM1109 29.6737H1103.16V28.7137L1108.16 26.9297C1108.03 26.9404 1107.86 26.9537 1107.67 26.9697C1107.47 26.9804 1107.27 26.9911 1107.06 27.0017C1106.84 27.0071 1106.63 27.0097 1106.44 27.0097H1103.16V26.3137H1109V27.2737L1104 29.0497C1104.13 29.0391 1104.29 29.0284 1104.49 29.0177C1104.68 29.0071 1104.89 28.9991 1105.1 28.9937C1105.32 28.9831 1105.52 28.9777 1105.72 28.9777H1109V29.6737ZM1109 23.9969H1103.16V20.6369H1103.82V23.2849H1105.62V20.9169H1106.27V23.2849H1108.34V20.6369H1109V23.9969Z" fill="white"/>
</svg>
