<svg id="slider-bar" data-name="Layer 1" xmlns="http://www.w3.org/2000/svg" viewBox="0 0 5857 60">
    <defs>
        <style>
            .cls-1,
            .cls-2 {
                fill: #fff;
            }

            .cls-2 {
                font-size: 8px;
                font-family: JetBrainsMono-Regular, JetBrains Mono;
            }
        </style>
    </defs>
    <title>scale</title>
    <rect class="cls-1" width="5857" height="8" rx="4" />
    <circle cx="4" cy="4" r="2" />
    <circle cx="29" cy="4" r="2" />
    <circle cx="123" cy="4" r="2" />
    <circle cx="133" cy="4" r="2" />
    <circle cx="147" cy="4" r="2" />
    <circle cx="171" cy="4" r="2" />
    <circle cx="198" cy="4" r="2" />
    <circle cx="236" cy="4" r="2" />
    <circle cx="263" cy="4" r="2" />
    <circle cx="276" cy="4" r="2" />
    <circle cx="288" cy="4" r="2" />
    <circle cx="321" cy="4" r="2" />
    <circle cx="365" cy="4" r="2" />
    <circle cx="385" cy="4" r="2" />
    <circle cx="552" cy="4" r="2" />
    <circle cx="591" cy="4" r="2" />
    <circle cx="1938" cy="4" r="2" />
    <circle cx="3161" cy="4" r="2" />
    <circle cx="4169" cy="4" r="2" />
    <circle cx="4306" cy="4" r="2" />
    <circle cx="4387" cy="4" r="2" />
    <circle cx="5199" cy="4" r="2" />
    <circle cx="5853" cy="4" r="2" /><text class="cls-2" transform="translate(6.86 60) rotate(-90)">EARTH</text><text class="cls-2" transform="translate(31.86 60) rotate(-90)">MOON</text><text class="cls-2" transform="translate(122.86 60) rotate(-90)">MARS</text><text class="cls-2" transform="translate(133.36 60) rotate(-90)">ASTEROID<tspan x="0" y="7">BELT</tspan></text><text class="cls-2" transform="translate(150.86 60) rotate(-90)">CERES</text><text class="cls-2" transform="translate(173.86 60) rotate(-90)">JUPITER</text><text class="cls-2" transform="translate(200.86 60) rotate(-90)">SATURN</text><text class="cls-2" transform="translate(238.86 60) rotate(-90)">URANUS</text><text class="cls-2" transform="translate(265.86 60) rotate(-90)">NEPTUNE</text><text class="cls-2" transform="translate(278.86 60) rotate(-90)">PLUTO</text><text class="cls-2" transform="translate(287.36 60) rotate(-90)">KUIPER<tspan x="0" y="7">BELT</tspan></text><text class="cls-2" transform="translate(323.86 60) rotate(-90)">ERIS</text><text class="cls-2" transform="translate(367.86 60) rotate(-90)">HELIOPAUSE</text><text class="cls-2" transform="translate(387.86 60) rotate(-90)">VOYAGER-1</text><text class="cls-2" transform="translate(554.86 60) rotate(-90)">PLANET 9</text><text class="cls-2" transform="translate(593.86 60) rotate(-90)">SEDNA</text><text class="cls-2" transform="translate(1937.36 60) rotate(-90)">OORT<tspan x="0" y="7">CLOUD</tspan></text><text class="cls-2" transform="translate(3160.36 60) rotate(-90)">EPSILON<tspan x="0" y="7">ERIDANI</tspan></text><text class="cls-2" transform="translate(4171.86 60) rotate(-90)">GJ 436B</text><text class="cls-2" transform="translate(4308.86 60) rotate(-90)">DENEBOLA</text><text class="cls-2" transform="translate(4389.86 60) rotate(-90)">TRAPPIST-1</text><text class="cls-2" transform="translate(5201.86 60) rotate(-90)">REGULUS</text><text class="cls-2" transform="translate(5855.86 60) rotate(-90)">K2-18B</text>
</svg>