<svg width="24" height="24" viewBox="0 0 24 24" fill="none" xmlns="http://www.w3.org/2000/svg">
<path fill-rule="evenodd" clip-rule="evenodd" d="M12.9301 5.58008C15.8851 5.65904 17.9105 7.35445 18.8101 9.48007C19.0321 10.0048 19.1295 10.6091 19.2601 11.2201C19.3539 11.2524 19.5125 11.252 19.6501 11.2501C19.7476 11.1881 20.0097 11.2181 20.1601 11.2201C20.6288 11.2261 21.0303 11.3797 21.3601 11.5201C22.3452 11.9393 23.0303 12.682 23.3701 13.7401C23.4408 13.9604 23.4051 14.1484 23.4601 14.4001C23.5501 14.8118 23.4836 15.3994 23.3701 15.7501C23.0001 16.8935 22.1445 17.7505 21.0001 18.12C20.4451 18.2993 19.7321 18.27 19.0201 18.27H12.9301C12.6833 18.2117 12.4469 18.098 12.3301 17.91C12.211 17.7185 12.2401 17.3731 12.2401 17.0701V6.78008C12.2401 6.47375 12.2136 6.13619 12.3301 5.94008C12.5064 5.64308 12.6809 5.73956 12.9301 5.58008ZM10.0501 6.99007C11.0607 7.00828 10.8301 8.12281 10.8301 9.12007V15.6601C10.8301 16.5867 11.0638 18.0355 10.3201 18.24C10.1581 18.2846 9.95501 18.2194 9.87008 18.18C9.26246 17.8982 9.45008 16.1701 9.45008 16.1701V9.54007C9.45008 9.54007 9.31085 7.69507 9.51008 7.41007C9.60335 7.11499 9.81725 7.14325 10.0501 6.99007ZM4.47008 9.81007C5.34182 9.90241 5.22008 10.6637 5.22008 11.6101V15.9901C5.22008 16.4864 5.32088 17.3438 5.19008 17.76C5.1065 18.026 4.62494 18.4606 4.23008 18.18C3.61859 18.0064 3.81008 16.7892 3.81008 16.0201V12.0001C3.81008 11.5869 3.72449 10.5661 3.84008 10.2601C3.89408 10.1174 4.06175 9.92989 4.20008 9.87007C4.28375 9.83389 4.40138 9.85381 4.47008 9.81007ZM7.26008 9.81007C7.45733 9.81967 7.58492 9.88726 7.74008 9.93007C7.8074 10.0308 7.93166 10.1168 7.98008 10.2301C8.14649 10.6192 8.04008 11.6291 8.04008 12.1501V16.4701C8.04008 17.2471 8.11754 18.5132 7.14008 18.24C6.42641 18.0406 6.60008 16.9477 6.60008 16.0501V11.8801C6.60008 11.3708 6.48422 10.5236 6.69008 10.1701C6.84473 9.90451 7.02008 9.96352 7.26008 9.81007ZM1.65008 11.9101C1.91666 11.9384 2.16284 12.0337 2.28008 12.2101C2.45966 12.4801 2.37008 13.1701 2.37008 13.5901V16.1101C2.37008 16.8551 2.41649 17.3955 1.83008 17.5501C1.68272 17.5889 1.54649 17.5193 1.47008 17.4901C0.914749 17.2773 0.990079 16.7171 0.990079 15.9601V13.5001C0.990079 13.1219 0.929479 12.6175 1.05008 12.3301C1.18277 12.0138 1.39508 12.0759 1.65008 11.9101Z" fill="white"/>
</svg>
