<svg width="28" height="28" viewBox="0 0 28 28" fill="none" xmlns="http://www.w3.org/2000/svg">
<path d="M26 14C26 20.6274 20.6274 26 14 26C7.37258 26 2 20.6274 2 14C2 7.37258 7.37258 2 14 2C20.6274 2 26 7.37258 26 14Z" fill="black"/>
<path fill-rule="evenodd" clip-rule="evenodd" d="M28 14C28 21.732 21.732 28 14 28C6.26801 28 0 21.732 0 14C0 6.26801 6.26801 0 14 0C21.732 0 28 6.26801 28 14ZM14 26C20.6274 26 26 20.6274 26 14C26 7.37258 20.6274 2 14 2C7.37258 2 2 7.37258 2 14C2 20.6274 7.37258 26 14 26Z" fill="white"/>
<path fill-rule="evenodd" clip-rule="evenodd" d="M17.9978 14.5415C17.9978 12.2029 17.1782 9.93837 15.6816 8.14149C15.3281 7.71713 15.3856 7.08658 15.8099 6.73312C16.2343 6.37965 16.8648 6.43713 17.2183 6.86149C19.0143 9.01774 19.9978 11.7352 19.9978 14.5415C19.9978 17.3477 19.0143 20.0652 17.2183 22.2215C16.8648 22.6459 16.2343 22.7033 15.8099 22.3499C15.3856 21.9964 15.3281 21.3659 15.6816 20.9415C17.1782 19.1446 17.9978 16.88 17.9978 14.5415Z" fill="white"/>
<path fill-rule="evenodd" clip-rule="evenodd" d="M12.9988 14.5066C12.9988 13.4688 12.6759 12.4567 12.0748 11.6107C11.755 11.1605 11.8606 10.5362 12.3109 10.2164C12.7611 9.8965 13.3854 10.0022 13.7052 10.4524C14.5467 11.6368 14.9988 13.0537 14.9988 14.5066C14.9988 15.9595 14.5467 17.3763 13.7052 18.5607C13.3854 19.011 12.7611 19.1166 12.3109 18.7968C11.8606 18.4769 11.755 17.8526 12.0748 17.4024C12.6759 16.5564 12.9988 15.5443 12.9988 14.5066Z" fill="white"/>
<path fill-rule="evenodd" clip-rule="evenodd" d="M9 13.5015C9.55228 13.5015 10 13.9492 10 14.5015V14.5115C10 15.0637 9.55228 15.5115 9 15.5115C8.44772 15.5115 8 15.0637 8 14.5115L8 14.5015C8 13.9492 8.44772 13.5015 9 13.5015Z" fill="white"/>
</svg>
