<svg width="24" height="24" viewBox="0 0 24 24" fill="none" xmlns="http://www.w3.org/2000/svg">
<g clip-path="url(#clip0_1718_960)">
<path fill-rule="evenodd" clip-rule="evenodd" d="M11.2968 -4.52367e-06C17.3968 -0.123942 21.2054 3.14235 23.0156 7.31249C24.1534 9.93365 24.3294 13.7275 23.1562 16.5C21.7866 19.7367 19.3968 21.9545 16.125 23.2969C15.0932 23.7202 13.935 23.72 12.7031 24C12.3166 24.0878 11.6104 24.0242 11.2968 23.9531C10.739 23.8266 10.2656 23.946 9.74997 23.8125C8.8825 23.5878 8.04607 23.3365 7.31247 23.0156C3.83111 21.493 1.69765 19.0238 0.468723 15.2344C0.099208 14.095 -0.267214 11.8116 0.0937236 10.3125C0.294255 9.47976 0.397708 8.61942 0.703098 7.87499C2.04536 4.60312 4.26335 2.21339 7.49997 0.843745C8.28067 0.51337 9.14997 0.355636 10.0312 0.14062C10.3609 0.060183 11.0538 0.15187 11.2968 -4.52367e-06ZM9.84372 6.28124C9.46975 6.49935 8.28147 6.26338 7.78122 6.37499C6.59271 6.64012 4.55997 6.61673 3.84372 7.31249C3.53435 7.61296 3.28914 8.29509 3.60935 8.81249C3.74529 9.03201 3.98904 9.11024 4.17185 9.28124C5.01644 9.33899 5.67719 9.0876 6.42185 8.90624C7.03999 8.75568 7.68958 8.80312 8.29685 8.67187H9.09372C9.53763 8.57812 10.3843 8.57587 10.8281 8.67187C11.4662 8.80991 12.0533 8.62996 12.6562 8.76562C13.8959 9.04457 15.1534 9.17029 16.2187 9.56249C16.7984 9.77592 17.3178 9.88856 17.8593 10.125C18.227 10.2855 18.5807 10.5604 18.9375 10.7344C19.1611 10.8434 19.6155 10.879 19.8281 10.7344C20.2561 10.6319 20.8771 9.77371 20.4375 9.18749C20.215 8.45784 19.0543 8.17059 18.375 7.87499C16.0253 6.85256 13.1728 6.34612 9.84372 6.28124ZM9.5156 10.4062C9.20463 10.5898 8.24477 10.4062 7.8281 10.5C6.88717 10.7115 5.16719 10.7839 4.54685 11.2969C4.44489 11.3812 4.4043 11.5745 4.31247 11.6719C4.23321 12.5527 4.40782 12.5468 4.87497 12.9844C5.55189 13.0319 6.10033 12.8141 6.7031 12.6562C7.48553 12.4513 8.28011 12.4521 9.18747 12.4219C9.43867 12.4135 9.77266 12.3059 10.0781 12.375C11.0013 12.584 11.9689 12.4359 12.8437 12.6562C14.6036 13.0995 15.8443 13.5638 17.25 14.2969C17.7147 14.5392 18.4918 14.6528 18.7031 14.0625C19.5488 13.0956 17.8094 12.3819 17.3437 12.1406C15.2459 11.0535 12.6584 10.4531 9.5156 10.4062ZM9.04685 14.3437C8.7461 14.5189 8.2038 14.3524 7.8281 14.4375C7.08119 14.6067 5.08591 14.6793 4.87497 15.2812C4.76482 15.4197 4.77443 15.6791 4.78122 15.9375C4.93075 16.0979 4.96689 16.2773 5.2031 16.3594C5.45622 16.5488 6.03939 16.3977 6.37497 16.3125C7.40244 16.0588 8.45728 15.9328 9.5156 15.9375C11.6937 15.9369 13.3919 16.2187 14.9062 16.875C15.3904 17.0849 15.8712 17.5087 16.3593 17.6719C16.8826 17.8468 17.1034 17.4512 17.3437 17.2031C17.335 16.0704 16.569 15.9471 15.7968 15.6094C13.7578 14.7174 12.0393 14.3572 9.04685 14.3437Z" fill="white"/>
</g>
<defs>
<clipPath id="clip0_1718_960">
<rect width="24" height="24" fill="white"/>
</clipPath>
</defs>
</svg>
